<svg xmlns="http://www.w3.org/2000/svg" width="192" height="171.351" viewBox="0 0 192 171.351">
  <g id="Group_20104" data-name="Group 20104" transform="translate(-111 -143)">
    <g id="Group_17" data-name="Group 17" transform="translate(4.777 -1)">
      <path id="Path_2" data-name="Path 2" d="M-7488.855-1506.233c-2.818-.189-13.438-9.436-25.062-1.529s-34.531,30.984-32.765,51.1,15.354,14.037,32.765,33.953,11.593,38.725,36.882,45.713,21.821-2.923,51.326-13,60.124-16.333,66.692-27.3,3.542-24.455,3.542-24.455-12.821-24.627-9.352-39.919-6.6-42.041-24.776-36.311-19.823,19.969-30.748,19.828S-7488.855-1506.233-7488.855-1506.233Z" transform="translate(7653 1690)" fill="#f7f7f8"/>
      <g id="Rectangle_1" data-name="Rectangle 1" transform="translate(164.242 144)" fill="#fff" stroke="#000" stroke-width="1">
        <rect width="77" height="123" rx="10" stroke="none"/>
        <rect x="0.5" y="0.5" width="76" height="122" rx="9.5" fill="none"/>
      </g>
      <g id="Rectangle_2" data-name="Rectangle 2" transform="translate(173.241 162)" fill="#f8f7f7" stroke="#000" stroke-width="1">
        <rect width="59" height="91" rx="2" stroke="none"/>
        <rect x="0.5" y="0.5" width="58" height="90" rx="1.5" fill="none"/>
      </g>
      <path id="Icon_awesome-star-of-life" data-name="Icon awesome-star-of-life" d="M9.249,6.553,6.585,5.016,9.249,3.479a.313.313,0,0,0,.115-.428L8.736,1.965a.314.314,0,0,0-.429-.115L5.644,3.387V.314A.314.314,0,0,0,5.33,0H4.075a.314.314,0,0,0-.314.314V3.387L1.1,1.85a.314.314,0,0,0-.429.115L.042,3.051a.313.313,0,0,0,.115.428L2.821,5.016.157,6.553a.313.313,0,0,0-.115.428L.67,8.067a.314.314,0,0,0,.429.115L3.762,6.645V9.719a.314.314,0,0,0,.314.314H5.33a.314.314,0,0,0,.314-.314V6.645L8.307,8.182a.314.314,0,0,0,.429-.115l.627-1.086A.313.313,0,0,0,9.249,6.553Z" transform="translate(182.199 227.484)"/>
      <path id="Icon_awesome-star-of-life-2" data-name="Icon awesome-star-of-life" d="M9.249,6.553,6.585,5.016,9.249,3.479a.313.313,0,0,0,.115-.428L8.736,1.965a.314.314,0,0,0-.429-.115L5.644,3.387V.314A.314.314,0,0,0,5.33,0H4.075a.314.314,0,0,0-.314.314V3.387L1.1,1.85a.314.314,0,0,0-.429.115L.042,3.051a.313.313,0,0,0,.115.428L2.821,5.016.157,6.553a.313.313,0,0,0-.115.428L.67,8.067a.314.314,0,0,0,.429.115L3.762,6.645V9.719a.314.314,0,0,0,.314.314H5.33a.314.314,0,0,0,.314-.314V6.645L8.307,8.182a.314.314,0,0,0,.429-.115l.627-1.086A.313.313,0,0,0,9.249,6.553Z" transform="translate(194.231 227.484)"/>
      <path id="Icon_awesome-star-of-life-3" data-name="Icon awesome-star-of-life" d="M9.249,6.553,6.585,5.016,9.249,3.479a.313.313,0,0,0,.115-.428L8.736,1.965a.314.314,0,0,0-.429-.115L5.644,3.387V.314A.314.314,0,0,0,5.33,0H4.075a.314.314,0,0,0-.314.314V3.387L1.1,1.85a.314.314,0,0,0-.429.115L.042,3.051a.313.313,0,0,0,.115.428L2.821,5.016.157,6.553a.313.313,0,0,0-.115.428L.67,8.067a.314.314,0,0,0,.429.115L3.762,6.645V9.719a.314.314,0,0,0,.314.314H5.33a.314.314,0,0,0,.314-.314V6.645L8.307,8.182a.314.314,0,0,0,.429-.115l.627-1.086A.313.313,0,0,0,9.249,6.553Z" transform="translate(205.26 227.484)"/>
      <path id="Icon_awesome-star-of-life-4" data-name="Icon awesome-star-of-life" d="M9.249,6.553,6.585,5.016,9.249,3.479a.313.313,0,0,0,.115-.428L8.736,1.965a.314.314,0,0,0-.429-.115L5.644,3.387V.314A.314.314,0,0,0,5.33,0H4.075a.314.314,0,0,0-.314.314V3.387L1.1,1.85a.314.314,0,0,0-.429.115L.042,3.051a.313.313,0,0,0,.115.428L2.821,5.016.157,6.553a.313.313,0,0,0-.115.428L.67,8.067a.314.314,0,0,0,.429.115L3.762,6.645V9.719a.314.314,0,0,0,.314.314H5.33a.314.314,0,0,0,.314-.314V6.645L8.307,8.182a.314.314,0,0,0,.429-.115l.627-1.086A.313.313,0,0,0,9.249,6.553Z" transform="translate(216.289 227.484)"/>
      <path id="Path_1" data-name="Path 1" d="M-7456.133-1467.177s-3.346-9.9,1.31-14.512,8.534-1.086,13.383-5.906a11.05,11.05,0,0,0,3.121-10.532" transform="translate(7653.249 1690)" fill="none" stroke="#000" stroke-linecap="round" stroke-width="1" stroke-dasharray="1 2"/>
      <line id="Line_1" data-name="Line 1" x2="22" transform="translate(191.741 153.5)" fill="none" stroke="#000" stroke-linecap="round" stroke-width="2"/>
    </g>
    <g id="Group_20058" data-name="Group 20058" transform="translate(203.99 164.997)">
      <path id="Path_14788" data-name="Path 14788" d="M16.011,6a.5.5,0,0,1,0-1,.5.5,0,0,0,.5-.5.519.519,0,0,0-.878-.328.5.5,0,0,1-.756-.654A1.5,1.5,0,1,1,16.011,6Z"/>
      <path id="Path_14789" data-name="Path 14789" d="M16.011,8a.5.5,0,0,1-.5-.5v-2a.5.5,0,0,1,1,0v2A.5.5,0,0,1,16.011,8ZM7.941,25.314a.505.505,0,0,1-.132-.018l-3.86-1.049a.5.5,0,1,1,.263-.965l3.86,1.049a.5.5,0,0,1-.131.983Zm16.118,0a.5.5,0,0,1-.131-.982l3.86-1.049a.5.5,0,1,1,.263.965L24.191,25.3a.509.509,0,0,1-.132.017Z"/>
      <circle id="Ellipse_510" data-name="Ellipse 510" cx="0.5" cy="0.5" r="0.5" transform="translate(15.511 13.5)"/>
      <circle id="Ellipse_511" data-name="Ellipse 511" cx="0.5" cy="0.5" r="0.5" transform="translate(15.511 15.5)"/>
      <circle id="Ellipse_512" data-name="Ellipse 512" cx="0.5" cy="0.5" r="0.5" transform="translate(15.511 17.5)"/>
      <circle id="Ellipse_513" data-name="Ellipse 513" cx="0.5" cy="0.5" r="0.5" transform="translate(15.511 19.5)"/>
      <circle id="Ellipse_514" data-name="Ellipse 514" cx="0.5" cy="0.5" r="0.5" transform="translate(15.511 21.5)"/>
      <circle id="Ellipse_515" data-name="Ellipse 515" cx="0.5" cy="0.5" r="0.5" transform="translate(15.511 23.5)"/>
      <circle id="Ellipse_516" data-name="Ellipse 516" cx="0.5" cy="0.5" r="0.5" transform="translate(15.511 25.5)"/>
      <path id="Path_14790" data-name="Path 14790" d="M18.718,8.879a.5.5,0,0,1-.294-.1L17.48,8.1A.5.5,0,0,0,17.186,8H14.837a.5.5,0,0,0-.294.1l-.944.688a.5.5,0,0,1-.589-.809l.944-.688A1.486,1.486,0,0,1,14.836,7h2.349a1.491,1.491,0,0,1,.883.287l.944.688a.5.5,0,0,1-.294.9Z"/>
      <path id="Path_14791" data-name="Path 14791" d="M14.718,13.121a.5.5,0,0,1-.354-.146l-2.829-2.828a.5.5,0,0,1,0-.708l1.414-1.414a.5.5,0,0,1,.707,0l2.829,2.828a.5.5,0,0,1,0,.708l-1.414,1.414a.5.5,0,0,1-.353.146ZM12.6,9.793l2.122,2.121.707-.707L13.3,9.086Z"/>
      <path id="Path_14792" data-name="Path 14792" d="M17.3,13.121a.5.5,0,0,1-.354-.146l-1.414-1.414a.5.5,0,0,1,0-.708l2.829-2.828a.5.5,0,0,1,.707,0l1.414,1.414a.5.5,0,0,1,0,.708l-2.829,2.828a.5.5,0,0,1-.353.146ZM16.6,11.207l.707.707,2.122-2.121-.707-.707ZM21.511,29h-11a.5.5,0,0,1-.5-.5v-11a.5.5,0,0,1,1,0V28h10V17.5a.5.5,0,0,1,1,0v11A.5.5,0,0,1,21.511,29Z"/>
      <path id="Path_14793" data-name="Path 14793" d="M7.368,27.314a.5.5,0,0,1-.131-.018l-3.86-1.049a.5.5,0,0,1-.351-.613L6.278,13.667a4.5,4.5,0,0,1,2.385-2.872l3.01-1.454a.5.5,0,1,1,.434.9L9.1,11.695a3.5,3.5,0,0,0-1.855,2.234L4.121,25.414l2.92.793,2.995-9.116a.5.5,0,1,1,.95.312L7.842,26.97a.5.5,0,0,1-.474.344Zm17.264,0a.5.5,0,0,1-.475-.344L21.013,17.4a.5.5,0,1,1,.95-.312l2.995,9.116,2.92-.793L24.757,13.931A3.5,3.5,0,0,0,22.9,11.7l-3.01-1.454a.5.5,0,1,1,.434-.9l3.01,1.454a4.493,4.493,0,0,1,2.385,2.872l3.252,11.967a.5.5,0,0,1-.351.613L24.762,27.3a.52.52,0,0,1-.13.016Z"/>
    </g>
  </g>
</svg>
